<svg width="51" height="47" viewBox="0 0 51 47" fill="none" xmlns="http://www.w3.org/2000/svg"><path d="M25.337 7.673L18.24 1.31H7.779L1.417 7.673v7.464h9.788V9.57h4.038v9.299H9.86v8.258h5.384v9.788h-4.038v-5.934H1.417v7.83l6.362 6.362h10.89l6.668-6.362V27.616l-5.812-4.65 5.812-4.832V7.673z" fill="#1C1C1C"/><path d="M25.337 7.673L18.24 1.31H7.779L1.417 7.673v7.464h9.788V9.57h4.038v9.299H9.86v8.258h5.384v9.788h-4.038v-5.934H1.417v7.83l6.362 6.362h10.89l6.668-6.362V27.616l-5.812-4.65 5.812-4.832V7.673z" stroke="#1C1C1C" stroke-width="1.71" stroke-miterlimit="3.864"/><path d="M49.614 1.311H28.14V9.57h5.69v35.603h10.093V9.57h5.69V1.31z" fill="#1C1C1C"/><path d="M49.614 1.311H28.14V9.57h5.69v35.603h10.093V9.57h5.69V1.31v0z" stroke="#1C1C1C" stroke-width="1.71" stroke-miterlimit="3.864"/></svg>