<svg width="186" height="30" viewBox="0 0 186 30" fill="none" xmlns="http://www.w3.org/2000/svg"><g clip-path="url(#clip0)" fill="#000"><path d="M19.797 20.977c-4.513 2.61-8.91 2.563-13.353-.19-.116.19-.256.357-.372.57-1.35 2.35-2.698 4.723-4.047 7.072-.117.19-.21.475-.373.546-.325.119-.79.237-1 .095-.256-.19-.349-.665-.395-1.02-.024-.19.186-.404.302-.594 1.396-2.468 2.791-4.912 4.21-7.38.21-.38.187-.594-.093-.926-2.86-3.156-3.815-6.835-2.489-10.964 1.35-4.2 4.35-6.74 8.537-7.665C16.61-.784 22.402 2.443 24.263 7.972c1.395 4.177.488 7.927-2.396 11.178-.21.237-.489.404-.721.593 1.465 2.54 2.86 4.937 4.256 7.357.163.285.35.57.489.878.21.451.093.854-.326 1.116-.418.26-.814.166-1.14-.19a2.872 2.872 0 01-.348-.57c-1.42-2.444-2.838-4.889-4.28-7.357zm.511-2.705c2.443-2.61 3.42-5.577 2.536-9.018C20.959 2.016 11.632-.452 6.212 4.84c-3.49 3.417-3.815 8.757-.768 12.578.14.19.302.332.489.546.162-.285.302-.499.418-.712 1.861-3.275 3.745-6.55 5.606-9.825.698-1.21 1.326-1.21 2.047.023l3.699 6.408c.86 1.424 1.698 2.871 2.605 4.414zm-12.957.878c3.373 2.634 8.56 2.492 11.515.166a9574.36 9574.36 0 00-5.839-10.11c-1.93 3.37-3.815 6.645-5.676 9.944zm71.298-4.532c.558.428 1.233.736 1.628 1.282 1.024 1.376.466 3.868-1.046 4.675-.559.309-1.21.522-1.815.546-1.745.095-3.49.071-5.234.119h-.698V8.472c2.07.071 4.141.048 6.165.285 1.605.19 2.489 1.163 2.675 2.492.232 1.59-.28 2.563-1.675 3.37zm-5.35 5.08c1.465-.072 2.861-.048 4.233-.238.954-.119 1.373-.855 1.373-1.875s-.442-1.756-1.373-1.875c-1.395-.166-2.791-.166-4.233-.237v4.224zm0-5.602c1.28-.07 2.559-.047 3.791-.237.977-.142 1.42-.878 1.396-1.922-.023-.95-.465-1.59-1.465-1.685-1.21-.119-2.466-.024-3.722-.024v3.868zm34.59-5.766c2.908 0 5.024 1.85 5.536 4.888.256 1.448.21 2.872-.232 4.296-.768 2.492-2.745 3.987-5.327 3.963-2.606 0-4.606-1.519-5.327-4.058a8.73 8.73 0 010-5.008c.744-2.61 2.698-4.081 5.35-4.081zm3.815 6.55c.07-.024.116-.048.186-.072-.326-1.067-.489-2.207-.977-3.18-1.256-2.349-4.792-2.325-6.048.024-1.117 2.089-1.117 4.32-.023 6.431 1.256 2.397 4.745 2.374 6.117.048.559-1.02.698-2.136.745-3.251zm73.297-2.824c-.605.07-1.116.142-1.628.213-.861-2.04-2.373-2.8-4.234-2.16-.907.309-1.442.973-1.442 1.828 0 .76.419 1.305 1.396 1.59.907.285 1.837.45 2.768.688a9.55 9.55 0 011.395.451c2.21.997 2.699 3.726.977 5.482-2.023 2.065-6.42 1.661-7.978-.783-.372-.593-.559-1.33-.861-2.112.744-.095 1.279-.166 1.838-.238.069.238.116.428.186.617.698 2.113 3.629 2.943 5.303 1.543 1.047-.878.908-2.373-.348-2.895-.954-.404-2.001-.594-3.001-.878-.489-.143-1-.261-1.466-.451-1.209-.522-1.977-1.424-2.023-2.824-.047-1.4.488-2.492 1.698-3.133 1.884-.997 3.815-.973 5.652.095 1.094.617 1.652 1.614 1.768 2.966zm-87.673 9.112c-.093.048-.116.048-.14.048-1.744.119-1.744.119-2.349-1.566-.605-1.685-.605-1.685-2.35-1.685-1 0-2 .023-2.977 0-.418-.024-.628.118-.767.522-.233.736-.559 1.424-.768 2.16-.14.474-.372.64-.86.593-.373-.048-.745 0-1.21 0 .093-.309.163-.522.232-.76 1.42-3.773 2.862-7.523 4.257-11.296.186-.522.442-.664.977-.64 1.28.023 1.28 0 1.745 1.257 1.326 3.536 2.675 7.072 4 10.608.047.214.117.475.21.76zM91.56 10.703c-.72 1.993-1.395 3.773-2.047 5.6h4.094c-.674-1.85-1.326-3.63-2.047-5.6zM51.62 21.192c-1.908.143-1.908.143-2.513-1.542s-.605-1.685-2.35-1.685c-1 0-2 .023-2.977 0-.419-.024-.628.118-.768.522-.232.736-.558 1.424-.767 2.16-.14.474-.396.64-.861.593-.372-.048-.744 0-1.21 0 .093-.309.163-.522.233-.76 1.419-3.773 2.861-7.523 4.257-11.296.186-.522.442-.664.977-.64 1.605.07 1.163-.286 1.744 1.257 1.373 3.56 2.699 7.143 4.048 10.727.023.19.093.403.186.664zm-7.84-4.865h4.094c-.675-1.85-1.326-3.655-2.047-5.6-.698 1.945-1.372 3.725-2.047 5.6zm125.729-3.583c-.558.071-1.07.142-1.628.213-.047-.142-.117-.26-.14-.38-.302-1.494-1.256-2.301-2.652-2.586-1.535-.309-2.977.237-3.675 1.543-1.163 2.183-1.186 4.485.023 6.668.768 1.376 2.094 1.827 3.606 1.543 1.442-.261 2.396-1.092 2.721-2.587.024-.119.07-.214.14-.356.558.071 1.093.142 1.675.213-.116 1.567-.768 2.73-2.001 3.513-3.628 2.373-8.211.118-8.723-4.272-.186-1.495-.116-2.966.396-4.414 1.558-4.272 6.536-4.272 8.769-2.35.908.855 1.419 1.875 1.489 3.252zm-47.384 3.583v4.865h-1.768V8.496c1.931.071 3.815 0 5.676.26 2.21.31 3.21 1.733 3.117 3.964-.093 1.993-1.302 3.275-3.442 3.512-.908.095-1.815.072-2.722.095h-.861zm0-1.59c.442 0 .814.024 1.187 0 .791-.047 1.605-.024 2.372-.142 1.001-.166 1.489-.878 1.559-1.994.07-1.115-.349-1.922-1.256-2.23-1.256-.428-2.559-.214-3.885-.214.023 1.566.023 3.014.023 4.58zm12.306-4.58V8.591h9.56v1.519h-3.884v11.082h-1.792V10.157h-3.884zM57.55 8.567h1.745v11.035h5.862v1.567h-7.606V8.567zm92.652.023c.186-.023.325-.047.488-.047h1.233v12.65h-1.721V8.59z"/></g><defs><clipPath id="clip0"><path fill="#fff" transform="translate(.257 .237)" d="M0 0h185v29H0z"/></clipPath></defs></svg>