<svg width="148" height="51" viewBox="0 0 148 51" fill="none" xmlns="http://www.w3.org/2000/svg"><g clip-path="url(#clip0)"><path d="M135.557.58H11.976c-.451 0-.896 0-1.345.003-.376.003-.75.01-1.13.016a15.96 15.96 0 00-2.46.22 8.09 8.09 0 00-2.336.785 7.916 7.916 0 00-1.988 1.473 7.819 7.819 0 00-1.448 2.026 8.353 8.353 0 00-.768 2.38c-.136.827-.21 1.663-.22 2.502-.011.383-.012.768-.018 1.151V40.03c.006.388.007.764.018 1.152.01.839.084 1.676.22 2.503a8.36 8.36 0 00.768 2.38c.372.748.861 1.43 1.448 2.018a7.716 7.716 0 001.988 1.473c.735.38 1.522.647 2.335.789.814.136 1.637.21 2.462.22.38.01.753.014 1.129.014.449.003.894.003 1.345.003h123.581c.441 0 .89 0 1.331-.003.374 0 .758-.005 1.133-.013.823-.01 1.644-.085 2.457-.221a8.267 8.267 0 002.344-.789 7.713 7.713 0 001.986-1.473 7.991 7.991 0 001.452-2.018 8.35 8.35 0 00.76-2.38c.137-.828.214-1.664.228-2.503.005-.388.005-.764.005-1.152.01-.454.01-.906.01-1.367V12.5c0-.458 0-.912-.01-1.365 0-.383 0-.768-.005-1.151a17.061 17.061 0 00-.228-2.503 8.376 8.376 0 00-.76-2.379 8.015 8.015 0 00-3.438-3.5 8.22 8.22 0 00-2.344-.783 15.769 15.769 0 00-2.457-.221c-.375-.006-.759-.014-1.133-.016-.441-.003-.89-.003-1.331-.003z" fill="#000"/><path d="M10.636 49.487c-.374 0-.739-.005-1.11-.014-.77-.01-1.537-.078-2.297-.203a7.143 7.143 0 01-2.035-.685 6.648 6.648 0 01-1.716-1.271 6.648 6.648 0 01-1.253-1.746 7.24 7.24 0 01-.668-2.071 15.782 15.782 0 01-.204-2.344c-.008-.264-.018-1.141-.018-1.141V11.136s.01-.864.018-1.118c.01-.784.077-1.567.203-2.34A7.283 7.283 0 012.224 5.6a6.713 6.713 0 011.247-1.747 6.843 6.843 0 011.723-1.278 7.068 7.068 0 012.03-.68A15.201 15.201 0 019.53 1.69l1.108-.016h126.245l1.122.016c.765.01 1.528.077 2.283.203a7.212 7.212 0 012.052.685 6.937 6.937 0 012.967 3.025c.32.65.542 1.345.657 2.061a16.5 16.5 0 01.214 2.36c.003.353.003.734.003 1.112.01.469.01.915.01 1.365v26.16c0 .455 0 .898-.01 1.345 0 .406 0 .779-.004 1.162-.015.776-.085 1.55-.21 2.317a7.275 7.275 0 01-.664 2.087 6.843 6.843 0 01-1.247 1.732 6.672 6.672 0 01-1.719 1.278 7.123 7.123 0 01-2.049.688c-.76.126-1.527.194-2.297.203a44.55 44.55 0 01-1.102.014l-1.332.002-124.92-.002z" fill="#fff"/><path d="M30.97 25.442a6.519 6.519 0 01.823-3.092 6.383 6.383 0 012.187-2.305 6.51 6.51 0 00-2.223-2.016 6.385 6.385 0 00-2.875-.788c-2.146-.23-4.225 1.306-5.318 1.306-1.115 0-2.798-1.284-4.61-1.246a6.706 6.706 0 00-3.316 1.007 6.858 6.858 0 00-2.398 2.539c-2.47 4.352-.628 10.75 1.739 14.267 1.184 1.723 2.568 3.648 4.379 3.58 1.771-.075 2.433-1.15 4.572-1.15 2.119 0 2.74 1.15 4.587 1.106 1.902-.031 3.1-1.73 4.242-3.47a14.354 14.354 0 001.94-4.02 6.135 6.135 0 01-2.71-2.287 6.295 6.295 0 01-1.02-3.43zm-3.49-10.515a6.408 6.408 0 001.424-4.538 6.298 6.298 0 00-4.098 2.158 6.052 6.052 0 00-1.157 2.036 6.126 6.126 0 00-.303 2.333 5.16 5.16 0 002.292-.511 5.252 5.252 0 001.842-1.478zm24.748 19.578h-5.815l-1.396 4.196h-2.463l5.508-15.523h2.559l5.507 15.523h-2.505l-1.395-4.196zm-5.212-1.936h4.609l-2.272-6.809h-.064l-2.273 6.81zm21.007.474c0 3.517-1.85 5.776-4.641 5.776a3.718 3.718 0 01-2.03-.478 3.805 3.805 0 01-1.47-1.502h-.053v5.606h-2.283V27.384h2.21v1.882h.042a3.978 3.978 0 011.5-1.498 3.89 3.89 0 012.041-.503c2.823 0 4.684 2.27 4.684 5.778zm-2.347 0c0-2.291-1.163-3.798-2.939-3.798-1.744 0-2.917 1.538-2.917 3.798 0 2.28 1.173 3.807 2.917 3.807 1.776 0 2.94-1.495 2.94-3.807zm14.589 0c0 3.517-1.85 5.776-4.642 5.776a3.718 3.718 0 01-2.03-.478 3.806 3.806 0 01-1.47-1.502h-.053v5.606h-2.282V27.384h2.21v1.882h.041a3.98 3.98 0 011.5-1.498 3.89 3.89 0 012.042-.503c2.822 0 4.684 2.27 4.684 5.778zm-2.347 0c0-2.291-1.164-3.798-2.94-3.798-1.744 0-2.917 1.538-2.917 3.798 0 2.28 1.173 3.807 2.917 3.807 1.776 0 2.94-1.495 2.94-3.807zm10.436 1.333c.169 1.54 1.638 2.55 3.647 2.55 1.924 0 3.308-1.011 3.308-2.399 0-1.205-.835-1.926-2.812-2.42l-1.977-.485c-2.801-.689-4.102-2.022-4.102-4.185 0-2.678 2.294-4.518 5.55-4.518 3.225 0 5.434 1.84 5.509 4.518h-2.305c-.138-1.549-1.396-2.484-3.235-2.484-1.84 0-3.098.946-3.098 2.323 0 1.098.804 1.743 2.77 2.238l1.681.42c3.13.753 4.43 2.032 4.43 4.302 0 2.905-2.273 4.723-5.889 4.723-3.383 0-5.667-1.776-5.814-4.583h2.337zm14.295-9.671v2.679h2.115v1.84h-2.115v6.238c0 .97.423 1.421 1.353 1.421.251-.004.502-.022.751-.054v1.829a6.13 6.13 0 01-1.268.107c-2.252 0-3.13-.86-3.13-3.055v-6.487h-1.617v-1.84h1.617v-2.678h2.294zm3.338 8.338c0-3.561 2.061-5.799 5.275-5.799 3.225 0 5.276 2.238 5.276 5.799 0 3.57-2.04 5.798-5.276 5.798-3.234 0-5.275-2.228-5.275-5.798zm8.225 0c0-2.443-1.1-3.884-2.95-3.884s-2.95 1.452-2.95 3.884c0 2.452 1.1 3.883 2.95 3.883s2.95-1.43 2.95-3.883zm4.208-5.659h2.178v1.926h.053a2.7 2.7 0 01.98-1.506 2.624 2.624 0 011.695-.539c.263 0 .525.028.782.087v2.173a3.141 3.141 0 00-1.026-.14 2.266 2.266 0 00-.969.174 2.3 2.3 0 00-.809.57 2.384 2.384 0 00-.601 1.859v6.713h-2.283V27.384zm16.214 7.993c-.307 2.054-2.274 3.464-4.789 3.464-3.236 0-5.244-2.206-5.244-5.745 0-3.55 2.019-5.852 5.148-5.852 3.077 0 5.012 2.151 5.012 5.583v.796h-7.855v.14a2.989 2.989 0 00.785 2.29 2.855 2.855 0 002.207.916 2.48 2.48 0 001.543-.363 2.55 2.55 0 001.025-1.23h2.168zm-7.718-3.378h5.561a2.736 2.736 0 00-.747-2.043 2.684 2.684 0 00-.906-.625 2.632 2.632 0 00-1.075-.204 2.775 2.775 0 00-2.005.835 2.872 2.872 0 00-.614.934 2.91 2.91 0 00-.214 1.103zM46.73 11.494a3.19 3.19 0 011.406.216c.447.177.85.452 1.18.807.33.354.579.779.728 1.243.149.464.195.956.135 1.44 0 2.383-1.266 3.753-3.45 3.753h-2.647v-7.459h2.648zm-1.51 6.404h1.383a2.274 2.274 0 001.835-.756 2.357 2.357 0 00.582-1.926 2.391 2.391 0 00-.59-1.914 2.311 2.311 0 00-.831-.585 2.275 2.275 0 00-.996-.169H45.22v5.35zm6.245-1.762a2.71 2.71 0 01.669-2.047c.245-.275.545-.495.879-.645a2.581 2.581 0 012.12 0c.334.15.634.37.88.645a2.699 2.699 0 01.669 2.047 2.711 2.711 0 01-.668 2.05 2.624 2.624 0 01-.88.647 2.582 2.582 0 01-3.002-.646 2.711 2.711 0 01-.668-2.05zm4.094 0c0-1.22-.539-1.933-1.484-1.933-.949 0-1.483.713-1.483 1.933 0 1.23.534 1.938 1.483 1.938.945 0 1.484-.713 1.484-1.938zm8.058 2.817h-1.132l-1.143-4.146h-.087l-1.138 4.146h-1.122l-1.525-5.629h1.108l.99 4.295h.082l1.137-4.295h1.047l1.138 4.295h.086l.986-4.295h1.092l-1.519 5.629zm2.801-5.629h1.051v.894h.082c.138-.32.372-.59.668-.77.296-.18.64-.26.983-.232a1.771 1.771 0 011.452.578 1.861 1.861 0 01.463 1.515v3.644h-1.092v-3.365c0-.905-.387-1.354-1.194-1.354a1.249 1.249 0 00-.983.404 1.296 1.296 0 00-.338 1.022v3.293h-1.092v-5.629zm6.438-2.197h1.091v7.826h-1.091v-7.826zm2.609 5.009a2.712 2.712 0 01.67-2.047 2.582 2.582 0 013-.645c.333.15.633.37.878.645a2.678 2.678 0 01.67 2.047 2.711 2.711 0 01-.668 2.05 2.624 2.624 0 01-.88.647 2.584 2.584 0 01-3.002-.646 2.679 2.679 0 01-.547-.954 2.713 2.713 0 01-.121-1.097zm4.094 0c0-1.22-.538-1.933-1.484-1.933-.949 0-1.482.713-1.482 1.933 0 1.23.533 1.938 1.482 1.938.946 0 1.484-.713 1.484-1.938zm2.273 1.225c0-1.013.741-1.597 2.057-1.68l1.499-.088v-.486c0-.595-.387-.93-1.133-.93-.61 0-1.031.228-1.152.625h-1.057c.111-.966 1.005-1.586 2.26-1.586 1.386 0 2.169.702 2.169 1.891v3.846h-1.051v-.791h-.087a1.873 1.873 0 01-.713.67c-.292.155-.62.229-.948.214a1.646 1.646 0 01-1.29-.426 1.726 1.726 0 01-.555-1.259zm3.556-.48v-.471l-1.351.087c-.762.052-1.107.316-1.107.812 0 .507.432.801 1.025.801a1.282 1.282 0 00.973-.306 1.324 1.324 0 00.46-.924zm2.522-.745c0-1.778.898-2.905 2.295-2.905a1.8 1.8 0 01.99.243c.3.175.545.433.707.744h.081v-3.091h1.092v7.826h-1.046v-.89h-.087c-.174.31-.427.565-.734.738a1.893 1.893 0 01-1.003.245c-1.407 0-2.296-1.127-2.296-2.91zm1.127 0c0 1.194.553 1.912 1.478 1.912.92 0 1.489-.728 1.489-1.907 0-1.173-.575-1.912-1.49-1.912-.918 0-1.477.723-1.477 1.907zm8.555 0a2.711 2.711 0 01.67-2.047c.245-.275.544-.495.878-.645a2.582 2.582 0 012.121 0c.334.15.633.37.879.645a2.684 2.684 0 01.669 2.047 2.7 2.7 0 01-.667 2.05 2.631 2.631 0 01-.88.647 2.581 2.581 0 01-2.123 0 2.624 2.624 0 01-.88-.646 2.711 2.711 0 01-.668-2.05zm4.094 0c0-1.22-.538-1.933-1.484-1.933-.949 0-1.482.713-1.482 1.933 0 1.23.534 1.938 1.482 1.938.946 0 1.484-.713 1.484-1.938zm2.588-2.812h1.051v.894h.081a1.68 1.68 0 01.668-.77c.296-.18.64-.26.983-.232a1.772 1.772 0 011.452.578c.184.2.321.441.401.704.08.262.101.54.062.811v3.644h-1.092v-3.365c0-.905-.386-1.354-1.194-1.354a1.246 1.246 0 00-.982.404 1.292 1.292 0 00-.338 1.022v3.293h-1.092v-5.629zm10.866-1.401v1.427h1.198v.936h-1.198v2.894c0 .59.239.848.782.848.139 0 .278-.01.416-.026v.925a3.503 3.503 0 01-.593.057c-1.214 0-1.698-.435-1.698-1.52v-3.179h-.878v-.935h.878v-1.427h1.093zm2.69-.796h1.082v3.102h.086a1.72 1.72 0 01.687-.776c.302-.18.651-.261 1-.233a1.797 1.797 0 011.437.594 1.894 1.894 0 01.468 1.505v3.634h-1.093v-3.36c0-.9-.412-1.355-1.183-1.355a1.273 1.273 0 00-1.022.384 1.316 1.316 0 00-.371 1.043v3.288h-1.091v-7.826zm11.125 6.306c-.148.515-.469.96-.908 1.257-.438.298-.965.43-1.489.371a2.477 2.477 0 01-1.061-.208 2.51 2.51 0 01-.877-.642 2.578 2.578 0 01-.617-2.055 2.636 2.636 0 01.616-2.062 2.56 2.56 0 01.873-.653 2.516 2.516 0 011.062-.226c1.539 0 2.467 1.07 2.467 2.838v.388h-3.906v.062a1.511 1.511 0 00.386 1.138 1.447 1.447 0 001.087.475 1.317 1.317 0 001.316-.683h1.051zm-3.84-1.814h2.794a1.37 1.37 0 00-.363-1.036 1.344 1.344 0 00-.456-.318 1.307 1.307 0 00-.543-.104 1.395 1.395 0 00-1.018.422 1.448 1.448 0 00-.414 1.036z" fill="#000"/></g><defs><clipPath id="clip0"><path fill="#fff" transform="translate(.263 .58)" d="M0 0h147v50H0z"/></clipPath></defs></svg>