<svg width="115" height="27" viewBox="0 0 115 27" fill="none" xmlns="http://www.w3.org/2000/svg"><g clip-path="url(#clip0)" fill="#1C1C1C"><path d="M61.005 26.242h-8.818c-.418 0-.491-.043-.745-.446l-7.863-14.677c-2.672-4.418-5.852-4.418-9.004-4.418H2.016a1.013 1.013 0 01-.424-.086.967.967 0 01-.344-.253.695.695 0 010-.695A21.073 21.073 0 013.705.624a.814.814 0 01.304-.28.863.863 0 01.408-.102h35.637c5.97 0 9.648 3.16 11.817 7.1l9.868 17.76a.728.728 0 01.01.796.777.777 0 01-.318.282.825.825 0 01-.426.079"/><path d="M.265 15.769a.75.75 0 00.264.51.826.826 0 00.561.195h24.56c.915 0 1.373-.371 1.576-1.275l.79-4.263a.774.774 0 00-.152-.673.834.834 0 00-.3-.197.868.868 0 00-.36-.056H1.09c-.565 0-.757.151-.825.71a22.005 22.005 0 000 5.049z"/><path d="M42.082 15.613c-.887-1.507-1.644-2.83-2.305-3.87-.949-1.431-2.146-1.372-3.745-1.507-.361-.032-.74-.048-1.13-.048a.953.953 0 00-.585.167.878.878 0 00-.347.479l-1.293 6.996c-.198 1.023-.633 1.97-2.463 1.97H2.016a.868.868 0 00-.39.052.83.83 0 00-.321.217.853.853 0 00-.057.754c.6 1.768 1.426 3.46 2.457 5.037a.778.778 0 00.3.285.827.827 0 00.412.097h34.417c.352-.022.69-.148.965-.358.276-.211.477-.497.577-.82l1.898-8.51a1.272 1.272 0 00-.192-.946M53.215.242h8.812c.418 0 .492.043.746.447l7.885 14.677c2.666 4.391 5.841 4.391 8.976 4.391h32.575c.146 0 .289.03.42.09s.246.147.337.255a.694.694 0 01.029.694 21.165 21.165 0 01-2.474 5.043.814.814 0 01-.304.28.86.86 0 01-.408.102h-35.62c-5.976 0-9.654-3.154-11.817-7.094l-9.868-17.76a.727.727 0 01.01-.76.776.776 0 01.3-.273.823.823 0 01.401-.092z"/><path d="M113.978 10.715a.752.752 0 00-.265-.51.824.824 0 00-.56-.195h-24.56c-.915 0-1.373.366-1.576 1.276l-.791 4.262a.77.77 0 00.153.673.832.832 0 00.3.198.868.868 0 00.36.055h26.108c.565 0 .757-.15.825-.71.194-1.678.194-3.37 0-5.049"/><path d="M72.155 10.872c.887 1.507 1.638 2.83 2.305 3.87.949 1.43 2.146 1.372 3.745 1.506.361.032.74.049 1.13.049a.96.96 0 00.585-.167.878.878 0 00.347-.48l1.293-6.996c.198-1.022.633-1.97 2.463-1.97h28.203a.863.863 0 00.391-.05.825.825 0 00.321-.219.839.839 0 00.074-.78 22.357 22.357 0 00-2.48-5.01.78.78 0 00-.301-.285.826.826 0 00-.411-.098H75.403c-.353.023-.69.148-.965.359-.276.21-.477.497-.577.82L71.963 9.93c-.064.327.005.666.192.947"/></g><defs><clipPath id="clip0"><path fill="#fff" transform="translate(.119 .242)" d="M0 0h114v26H0z"/></clipPath></defs></svg>