<svg width="138" height="37" viewBox="0 0 138 37" fill="none" xmlns="http://www.w3.org/2000/svg"><g clip-path="url(#clip0)" fill="#1C1C1C"><path d="M80.076 5.062c0-2.062 1.713-3.726 3.836-3.726 2.124 0 3.836 1.664 3.836 3.726 0 2.063-1.712 3.727-3.836 3.727-2.123 0-3.836-1.664-3.836-3.727zm-2.946 9.982h9.522v17.567h4.11v4.126H77.131v-4.126h4.247V19.236H77.13v-4.192zM7.466 4.597c-2.26 1.863-2.398 4.458-2.398 7.586v2.928H.753v4.125h4.315v13.442H.821v4.126h14.043v-4.126h-4.247V19.303h4.315v-4.126h-4.315v-4.06c0-1.064.068-1.929.685-2.66.822-.932 1.918-1.132 2.945-1.199l1.233-.066V2.867c-2.123-.067-6.028 0-8.014 1.73zm15.618.465c0-2.062 1.713-3.726 3.836-3.726 2.123 0 3.836 1.664 3.836 3.726 0 2.063-1.712 3.727-3.836 3.727-2.055 0-3.836-1.664-3.836-3.727zm27.4 10.048v8.119h4.521v-3.993h9.316L50.484 33.011v3.726H71.72V28.62h-4.658v3.992h-9.316L71.72 18.637v-3.46l-21.235-.066zm47.676 3.328c0-2.063 1.713-3.727 3.836-3.727 2.124 0 3.836 1.664 3.836 3.727 0 2.063-1.712 3.726-3.836 3.726-2.123 0-3.836-1.663-3.836-3.726zm0 15.039c0-2.063 1.713-3.727 3.836-3.727 2.124 0 3.836 1.664 3.836 3.727 0 2.062-1.712 3.726-3.836 3.726-2.123 0-3.836-1.664-3.836-3.726zm15.07-.866v4.126h8.836v-9.316l9.111 9.316h6.439v-4.126h-3.494l-6.85-6.987 4.932-6.388h3.288v-4.125h-6.165l-7.261 9.582V2.867h-8.905v4.192l3.562.066v25.486h-3.493zM46.237 1.403c-2.055.332-3.425 2.129-3.425 3.926 0 .332-.822 8.318-.753 8.783.068.666-.069 1.331.685 1.53 1.37.4 2.26-.864 2.603-1.73.137-.332 1.918-3.792 4.11-8.716.685-1.597.753-2.396-.206-3.328-.959-.798-2.74-.532-3.014-.465zM20.139 15.044h9.59v17.567h4.11v4.126h-13.7v-4.126h4.247V19.236h-4.247v-4.192z"/></g><defs><clipPath id="clip0"><path fill="#fff" transform="translate(.753 .737)" d="M0 0h137v36H0z"/></clipPath></defs></svg>