<svg width="113" height="30" viewBox="0 0 113 30" fill="none" xmlns="http://www.w3.org/2000/svg"><g clip-path="url(#clip0)" fill="#1C1C1C"><path d="M.407.742h8.07v28.503H.408V.742zm9.965 13.92L18.937.742h9.14l-8.81 13.92 9.223 14.583h-9.06l-9.058-14.583zM83.996.742h8.07v28.503h-8.07V.742zm9.964 13.92l8.565-13.92h9.141l-8.812 13.92 9.306 14.583h-9.141L93.96 14.662zM49.325.742h-9.882l-9.06 28.503h7.907l6.094-21.957 6.094 21.957h7.906L49.325.742zm23.141 2.155c-6.012 4.557-4.694 19.305-12.024 19.305v7.043c4.283 0 6.177-.58 8.236-2.403 5.682-5.137 4.859-19.057 11.859-19.057V.742c-2.306 0-5.024-.165-8.071 2.155z"/></g><defs><clipPath id="clip0"><path fill="#fff" transform="translate(.407 .742)" d="M0 0h112v29H0z"/></clipPath></defs></svg>