<svg width="127" height="47" viewBox="0 0 127 47" fill="none" xmlns="http://www.w3.org/2000/svg"><g clip-path="url(#clip0)" fill-rule="evenodd" clip-rule="evenodd" fill="#1C1C1C"><path d="M62.132.737c7.292-.008 13.021.328 19.227 1.356 6.776 1.122 13.095 2.635 18.184 5.473.376.21.663.347 1.151.652 1.984 1.24 4.453 3.226 4.928 5.891.383 2.155-.651 3.91-1.768 5.16-1.159 1.3-2.58 2.288-4.097 3.129-6.188 3.432-14.347 5.259-22.816 6.204-3.936.439-8.063.755-12.908.755-4.71 0-8.868-.185-12.88-.573-8.16-.79-16.707-2.455-23.138-5.63-1.601-.791-3.1-1.654-4.445-2.815-1.278-1.103-2.495-2.47-2.839-4.353-.577-3.164 1.714-5.466 3.615-6.882 2.038-1.517 4.66-2.785 7.177-3.7 5.232-1.904 11.559-3.169 17.835-3.91C53.541.998 57.253.741 62.132.736zm.188 2.841c-5.661 0-11.037 1-15.747 2.685-2.306.825-4.356 1.838-6.16 3.31-1.572 1.285-3.433 3.346-2.998 6.178.375 2.443 2.37 4.185 4.07 5.344 1.898 1.292 4.174 2.27 6.481 2.997 4.984 1.572 10.568 2.248 16.335 2.19 5.48-.056 11.242-.981 15.773-2.711 2.234-.853 4.378-1.898 6.132-3.337 1.616-1.325 3.332-3.465 2.893-6.125-.394-2.383-2.26-4.126-4.07-5.344-1.991-1.34-4.102-2.22-6.481-2.997-3.644-1.189-7.784-1.894-11.756-2.085-1.246-.06-2.885-.176-4.419-.105h-.053zM5.976 34.727c2.417-.005 4.567-.027 6.534.365.66.131 1.4.38 1.633.86.22.45.134 1.199.134 2.294v6.02c0 .386.05.872-.053 1.148-.322.854-2.075 1.056-2.973 1.147-2.417.243-5.294.227-7.766 0-.97-.09-2.703-.292-3.08-1.095-.223-.478-.107-1.606-.107-2.32V38.35c0-.846-.13-1.963.215-2.476.349-.52 1.495-.809 2.437-.939a20.352 20.352 0 013.026-.208zm-.214 1.486c-.097.192-.054.74-.054 1.068v5.683c0 .673-.136 1.84.08 2.215.225.388.845.383 1.473.391.498.006 1.257.035 1.5-.365.22-.362.08-1.443.08-2.163v-4.536c0-.487.126-1.866-.027-2.241-.194-.48-1.482-.447-1.928-.417-.32.021-.958.035-1.124.365zm21.128-1.356h6.829c1.567 3.878 3.141 7.751 4.686 11.651h-6.16c-.338-.956-.647-1.94-.99-2.893a51.428 51.428 0 00-3.642 0c-.33.922-.581 1.919-.857 2.893h-4.204c1.043-2.897 2.146-5.798 3.213-8.705a94.48 94.48 0 011.125-2.946zm.99 7.403a35.044 35.044 0 013 0c-.534-1.531-1.047-3.081-1.633-4.561-.43 1.545-.934 3.018-1.366 4.56zm25.441-2.71c1.275-1.283 2.607-2.724 3.937-4.145.16-.173.447-.51.59-.548.318-.085.887 0 1.258 0 1.223 0 2.519.022 3.722-.026.052.14-.146.214-.214.287a290.596 290.596 0 01-4.312 4.535c1.418 2.279 2.934 4.6 4.285 6.856h-6.186c-1.093-1.63-2.018-3.423-3.08-5.083v5.083h-5.837c-.019-3.763.035-7.82-.028-11.626 1.858-.06 3.972-.009 5.785-.026.147-.015.08.315.08.495v4.197zm18.451-4.693h5.812v10.087c1.927.018 3.927-.034 5.81.027v1.538H71.72c.062-3.574.01-7.803.027-11.6-.054-.023.011-.114.026-.052zm20.325 0h11.435v1.486h-5.57c-.062 1.138-.009 2.39-.026 3.571 1.428.017 2.927-.035 4.311.026.01.503-.019.984.027 1.356h-4.312v3.7c1.794.061 3.705.01 5.544.027v1.486H92.071v-11.6c-.012-.05.018-.094.026-.052zm34.144-.026c.023-.005.025.01.027.026-1.579 2.434-3.353 4.904-5.008 7.35.018 1.4-.035 3.005.027 4.275-1.91.061-3.937.009-5.891.026-.002-1.019 0-2.096 0-3.206 0-.355.067-.76 0-1.068-.06-.272-.435-.642-.643-.939a414.432 414.432 0 01-4.419-6.438h6.186c.912 1.397 1.741 2.876 2.598 4.327.898-1.42 1.732-2.902 2.624-4.327 1.491-.017 3.053.035 4.499-.026z"/></g><defs><clipPath id="clip0"><path fill="#fff" transform="translate(.268 .737)" d="M0 0h126v46H0z"/></clipPath></defs></svg>