<svg width="124" height="47" viewBox="0 0 124 47" fill="none" xmlns="http://www.w3.org/2000/svg"><g clip-path="url(#clip0)" fill="#1C1C1C"><path d="M.912.493H4.96c.538 0 .981 0 1.44.015 2.973.094 4.681 1.663 4.681 4.283 0 1.428-.537 2.652-1.534 3.405-1.06.8-2.436.941-4.397.941H4.012v4.785h-3.1V.492zm3.1 6.118h1.565c1.519 0 2.373-.549 2.373-1.772 0-1.209-.744-1.742-2.42-1.742H4.012v3.514zm6.215 7.296c1.218-3.216 3.21-8.503 5.188-13.43h3.732a4137.17 4137.17 0 005.061 13.43H20.95c-.395-1.066-.79-2.07-1.186-3.169H14.64l-1.218 3.17h-3.195zm8.667-5.616c-.696-2.197-1.218-3.624-1.708-5.256h-.032c-.474 1.679-1.09 3.483-1.692 5.256h3.432zm8.841 1.553c.19 1.224.981 1.836 2.389 1.836 1.265 0 2.087-.597 2.087-1.554 0-.925-.695-1.16-2.15-1.553l-.934-.267c-2.989-.847-4.19-1.945-4.19-4.047 0-2.385 2.024-4.017 5.108-4.017 2.973 0 4.903 1.428 5.06 4.032h-3.1c-.205-1.035-.837-1.6-2.055-1.6-1.139 0-1.756.55-1.756 1.35.016.894.617 1.176 1.693 1.49l1.043.298c3.069.847 4.508 1.757 4.508 4.157 0 2.573-2.151 4.19-5.41 4.19-3.273 0-5.297-1.617-5.424-4.315h3.131zm25.464 4.064h-3.954l-2.942-5.633c-.933-1.804-1.692-3.31-1.993-4.11h-.016c.064 1.082.032 2.87.032 4.267v5.476h-2.863V.493h4.018l3.447 6.715c.68 1.35 1.14 2.448 1.44 3.091h.015c-.063-1.13-.063-2.447-.063-3.89V.492h2.863v13.415h.016zm15.721-6.7c0 4.33-2.752 6.95-6.912 6.95-4.112 0-6.848-2.604-6.848-6.95 0-4.267 2.784-6.966 6.88-6.966s6.88 2.699 6.88 6.966zm-3.274.016c0-2.699-1.36-4.409-3.622-4.409-2.277 0-3.637 1.71-3.637 4.409 0 2.604 1.36 4.283 3.637 4.283 2.262 0 3.622-1.663 3.622-4.283zm8.43 6.684h-3.084V.493h4.998c1.597 0 2.688.173 3.653.832.98.737 1.534 1.836 1.534 3.138 0 2.322-1.423 3.592-2.99 4.095l3.386 5.35h-3.48L75.23 9.06h-1.154v4.848zm0-7.296h1.74c1.455 0 2.324-.565 2.324-1.773 0-1.27-.885-1.741-2.53-1.741h-1.534v3.514zM83.36.493h4.982l1.66 5.633a95.226 95.226 0 011.092 4.016h.016l1.233-4.173L93.91.493h4.792v13.43h-2.91V7.648c0-1.632.016-3.028.08-4.456h-.032a79.313 79.313 0 01-1.06 3.718l-2.088 6.998H89.45L87.393 7.05c-.601-1.882-.933-3.357-1.076-3.86h-.031c.063 1.413.063 2.495.063 4.331v6.386h-2.99V.493zm16.559 13.414c1.218-3.216 3.211-8.503 5.188-13.43h3.732c1.613 4.3 3.448 9.179 5.061 13.43h-3.258c-.395-1.066-.791-2.07-1.186-3.169h-5.109l-1.217 3.17h-3.211zm8.667-5.616c-.696-2.197-1.218-3.624-1.708-5.256h-.032c-.474 1.679-1.091 3.467-1.692 5.256h3.432zm9.648-7.798v10.779h5.678v2.651h-8.778V.493h3.1zM23.829 30.49c.19 1.224.98 1.836 2.388 1.836 1.265 0 2.088-.596 2.088-1.553 0-.926-.696-1.161-2.151-1.553l-.933-.267c-2.974-.847-4.192-1.93-4.192-4.032 0-2.385 2.025-4.016 5.109-4.016 2.973 0 4.903 1.427 5.061 4.032h-3.1c-.206-1.036-.838-1.6-2.056-1.6-1.139 0-1.755.549-1.755 1.349.015.894.616 1.176 1.692 1.49l1.044.298c3.068.847 4.507 1.757 4.507 4.158 0 2.573-2.15 4.189-5.409 4.189-3.274 0-5.298-1.616-5.425-4.315h3.132v-.015zm12.083 4.08V23.79h-3.574v-2.65h10.264v2.651h-3.574V34.57h-3.116zm16.228-5.523V21.14h3.1v8.001c0 1.71-.364 2.887-1.06 3.813-.902 1.208-2.389 1.835-4.365 1.835-1.993 0-3.448-.627-4.366-1.835-.696-.926-1.06-2.102-1.06-3.813V21.14h3.1v7.907c0 2.103.807 3.122 2.326 3.122 1.502 0 2.324-1.02 2.324-3.122zm5.582-7.907h3.37c.616 0 1.28 0 1.944.016 4.018.157 6.596 2.541 6.596 6.652 0 2.306-1.06 4.706-2.752 5.632-1.519 1.051-3.353 1.13-5.836 1.13h-3.337V21.14h.015zm3.1 10.825h1.06c.806 0 1.502-.078 2.024-.25 1.598-.471 2.436-1.695 2.436-3.892 0-2.086-.854-3.341-2.436-3.843-.49-.173-1.09-.251-1.834-.251h-1.25v8.236zm10.723 2.605V21.14h3.1v13.43h-3.1zm18.995-6.7c0 4.33-2.752 6.95-6.912 6.95-4.112 0-6.848-2.604-6.848-6.95 0-4.267 2.784-6.965 6.864-6.965 4.097 0 6.896 2.698 6.896 6.966zm-3.274.016c0-2.698-1.36-4.408-3.622-4.408-2.277 0-3.637 1.71-3.637 4.408 0 2.605 1.36 4.283 3.637 4.283 2.262 0 3.622-1.678 3.622-4.283zm7.639 2.604c.19 1.224.981 1.836 2.389 1.836 1.265 0 2.087-.596 2.087-1.553 0-.926-.696-1.161-2.15-1.553l-.95-.267c-2.973-.847-4.19-1.93-4.19-4.032 0-2.385 2.024-4.016 5.108-4.016 2.973 0 4.903 1.427 5.061 4.032h-3.1c-.206-1.036-.838-1.6-2.056-1.6-1.139 0-1.756.549-1.756 1.349.016.894.633 1.176 1.692 1.49l1.044.298c3.069.847 4.508 1.757 4.508 4.158 0 2.573-2.151 4.189-5.41 4.189-3.273 0-5.297-1.616-5.44-4.315h3.163v-.015zM11.398 41.677h.664v4.471h-.664v-4.471zm2.008 0h.886l1.534 2.62.57.973c0-.251-.016-.785-.016-1.224v-2.353h.648v4.47h-.854l-1.502-2.51c-.27-.47-.554-.94-.617-1.082v3.593h-.649v-4.487zm5.789.58h-1.218v-.58h3.116v.58h-1.218v3.907h-.664v-3.907h-.016zm2.831-.58h2.83v.58h-2.15v1.334h2.009v.565h-2.009v1.427h2.198v.565h-2.862v-4.471h-.016zm3.954 0h1.36c.458 0 .87.031 1.186.25.348.236.538.597.538 1.052 0 .785-.506 1.145-1.092 1.27.317.519.633 1.036 1.155 1.9h-.79c-.333-.597-.729-1.24-1.045-1.79h-.648v1.79h-.664v-4.472zm.664 2.102h.696c.632 0 1.012-.22 1.012-.769 0-.564-.38-.753-1.012-.753h-.696v1.522zm3.479-2.102h.886l1.534 2.62.57.973c0-.251-.016-.785-.016-1.224v-2.353h.648v4.47h-.854l-1.502-2.51c-.27-.47-.554-.94-.617-1.082v3.593h-.648v-4.487zm4.35 4.471c.6-1.506 1.218-2.965 1.834-4.471h.807l1.803 4.471h-.696l-.538-1.349h-1.977l-.537 1.35h-.696zm2.198-3.875c-.269.643-.506 1.302-.775 1.977h1.55c-.158-.377-.142-.377-.49-1.287-.111-.266-.222-.517-.285-.69zm3.496-.016h-1.218v-.58h3.116v.58h-1.218v3.907h-.665v-3.907h-.015zm2.815-.58h.664v4.471h-.664v-4.471zm6.278 2.243c0 1.381-.901 2.322-2.277 2.322-1.36 0-2.277-.94-2.277-2.322 0-1.38.917-2.322 2.261-2.322 1.376-.015 2.294.926 2.294 2.322zm-3.827-.015c0 1.02.585 1.773 1.55 1.773.965 0 1.55-.738 1.55-1.773 0-1.036-.585-1.757-1.566-1.757-.98 0-1.534.737-1.534 1.757zm4.808-2.228h.886l1.534 2.62.57.973c0-.251-.016-.785-.016-1.224v-2.353h.648v4.47h-.854l-1.502-2.51c-.27-.47-.554-.94-.617-1.082v3.593h-.649v-4.487zm4.365 4.471c.601-1.506 1.218-2.965 1.835-4.471h.807l1.803 4.471h-.696l-.538-1.349H55.84l-.522 1.35h-.712zm2.199-3.875c-.269.643-.506 1.302-.775 1.977h1.55c-.158-.377-.142-.377-.49-1.287a8.65 8.65 0 00-.285-.69zm3.005-.596h.664v3.906h1.977v.565h-2.657v-4.471h.016zm9.316 3.169c-.317.863-1.013 1.396-2.072 1.396-1.313 0-2.23-.941-2.23-2.322 0-1.38.917-2.322 2.261-2.322 1.06 0 1.772.518 2.056 1.444h-.695c-.254-.565-.665-.895-1.376-.895-.965 0-1.535.706-1.535 1.758 0 1.035.57 1.788 1.535 1.788.664 0 1.09-.314 1.344-.847h.712zm1.834-.424l-1.502-2.745h.743c.221.423.459.863.775 1.459l.348.643c.095-.204.19-.345 1.123-2.118h.711c-.506.926-1.028 1.82-1.534 2.746v1.726h-.648v-1.71h-.016zm6.753.424c-.316.863-1.012 1.396-2.071 1.396-1.313 0-2.23-.941-2.23-2.322 0-1.38.917-2.322 2.261-2.322 1.06 0 1.772.518 2.056 1.444h-.68c-.253-.565-.664-.895-1.376-.895-.965 0-1.534.706-1.534 1.758 0 1.035.57 1.788 1.534 1.788.665 0 1.092-.314 1.345-.847h.695zm.934-3.169h.664v3.906h1.977v.565H78.63v-4.471h.016zm3.622 0h.664v4.471h-.664v-4.471zm1.945 0h.886l1.534 2.62.57.973c0-.251-.017-.785-.017-1.224v-2.353h.649v4.47h-.854l-1.503-2.51c-.269-.47-.553-.94-.617-1.082v3.593h-.648v-4.487zm8.762 2.103v2.368h-.601v-.564c-.237.282-.696.658-1.518.658-1.266 0-2.199-.91-2.199-2.322 0-1.349.886-2.337 2.278-2.337 1.138 0 1.803.612 2.04 1.428h-.68c-.206-.471-.585-.863-1.36-.863-.933 0-1.55.643-1.55 1.772 0 1.083.6 1.789 1.534 1.789.98 0 1.407-.706 1.47-1.35h-1.644v-.564h2.23v-.016zm7.022 1.066c-.316.863-1.012 1.396-2.072 1.396-1.312 0-2.23-.941-2.23-2.322 0-1.38.918-2.322 2.262-2.322 1.06 0 1.771.518 2.056 1.444h-.68c-.253-.565-.664-.895-1.376-.895-.965 0-1.534.706-1.534 1.758 0 1.035.57 1.788 1.534 1.788.664 0 1.091-.314 1.344-.847h.696zm.933-3.169h.665v3.906h1.977v.565h-2.657v-4.471h.015zm4.033 2.714c0 .377.016.628.142.863.143.282.475.44.854.44.38 0 .728-.173.87-.44.127-.22.143-.486.143-.863v-2.714h.664v2.73c0 .533-.063.894-.301 1.224-.284.376-.806.596-1.376.596-.569 0-1.091-.204-1.36-.58-.253-.362-.3-.691-.3-1.24v-2.73h.664v2.714zm3.938-2.714h1.345c1.091 0 1.676.298 1.676 1.098 0 .596-.332.894-.664 1.02.427.125.854.423.854 1.082 0 1.052-.917 1.271-1.771 1.271h-1.44v-4.471zm.649 1.914h.727c.601 0 .918-.173.918-.69 0-.597-.459-.66-1.139-.66h-.522v1.35h.016zm0 2.008h.933c.506 0 .933-.188.933-.737 0-.55-.411-.738-1.06-.738h-.806V45.6z"/></g><defs><clipPath id="clip0"><path fill="#fff" transform="translate(.912 .242)" d="M0 0h123v46H0z"/></clipPath></defs></svg>