<svg width="165" height="51" viewBox="0 0 165 51" fill="none" xmlns="http://www.w3.org/2000/svg"><path d="M157.263 1.03h-150c-3.664 0-6.55 2.887-6.55 6.55v36c0 3.664 2.886 6.55 6.55 6.55h150c3.663 0 6.55-2.886 6.55-6.55v-36c0-3.536-2.879-6.55-6.55-6.55z" fill="#fff" stroke="#000" stroke-width="1.1"/><path d="M58.143 13.82c0 .96-.24 1.8-.84 2.4-.72.72-1.56 1.08-2.64 1.08s-1.92-.36-2.64-1.08c-.72-.72-1.08-1.56-1.08-2.64s.36-1.92 1.08-2.64c.72-.72 1.56-1.08 2.64-1.08.48 0 .96.12 1.44.36s.84.48 1.08.84l-.6.6c-.48-.6-1.08-.84-1.92-.84-.72 0-1.44.24-1.92.84-.6.48-.84 1.2-.84 2.04 0 .84.24 1.56.84 2.04s1.2.84 1.92.84c.84 0 1.44-.24 2.04-.84.36-.36.6-.84.6-1.44h-2.64v-.84h3.48v.36zm5.52-3h-3.24v2.28h3v.84h-3v2.28h3.24v.96h-4.2v-7.2h4.2v.84zm3.96 6.36h-.96v-6.36h-2.04v-.84h5.04v.84h-2.04v6.36zm5.52 0v-7.2h.96v7.2h-.96zm5.04 0h-.96v-6.36h-2.04v-.84h4.92v.84h-2.04v6.36h.12zm11.4-.96c-.72.72-1.56 1.08-2.64 1.08s-1.92-.36-2.64-1.08c-.72-.72-1.08-1.56-1.08-2.64s.36-1.92 1.08-2.64c.72-.72 1.56-1.08 2.64-1.08s1.92.36 2.64 1.08c.72.72 1.08 1.56 1.08 2.64s-.36 1.92-1.08 2.64zm-4.56-.6c.48.48 1.2.84 1.92.84s1.44-.24 1.92-.84c.48-.48.84-1.2.84-2.04 0-.84-.24-1.56-.84-2.04-.48-.48-1.2-.84-1.92-.84s-1.44.24-1.92.84c-.48.48-.84 1.2-.84 2.04 0 .84.24 1.56.84 2.04zm6.96 1.56v-7.2h1.08l3.48 5.64V9.98h.96v7.2h-.96l-3.72-5.88v5.88h-.84zm-9 10.56c-2.88 0-5.16 2.16-5.16 5.16 0 2.88 2.28 5.16 5.16 5.16 2.88 0 5.16-2.16 5.16-5.16 0-3.12-2.28-5.16-5.16-5.16zm0 8.16c-1.56 0-2.88-1.32-2.88-3.12s1.32-3.12 2.88-3.12c1.56 0 2.88 1.2 2.88 3.12 0 1.8-1.32 3.12-2.88 3.12zm-11.16-8.16c-2.88 0-5.16 2.16-5.16 5.16 0 2.88 2.28 5.16 5.16 5.16 2.88 0 5.16-2.16 5.16-5.16 0-3.12-2.28-5.16-5.16-5.16zm0 8.16c-1.56 0-2.88-1.32-2.88-3.12s1.32-3.12 2.88-3.12c1.56 0 2.88 1.2 2.88 3.12 0 1.8-1.32 3.12-2.88 3.12zm-13.32-6.6v2.16h5.16c-.12 1.2-.6 2.16-1.2 2.76-.72.72-1.92 1.56-3.96 1.56-3.24 0-5.64-2.52-5.64-5.76 0-3.24 2.52-5.76 5.64-5.76 1.68 0 3 .72 3.96 1.56l1.56-1.56c-1.32-1.2-3-2.16-5.4-2.16-4.32 0-8.04 3.6-8.04 7.92s3.72 7.92 8.04 7.92c2.4 0 4.08-.72 5.52-2.28 1.44-1.44 1.92-3.48 1.92-5.04 0-.48 0-.96-.12-1.32h-7.44zm54.48 1.68c-.48-1.2-1.68-3.24-4.32-3.24-2.64 0-4.8 2.04-4.8 5.16 0 2.88 2.16 5.16 5.04 5.16 2.28 0 3.72-1.44 4.2-2.28l-1.68-1.2c-.6.84-1.32 1.44-2.52 1.44s-1.92-.48-2.52-1.56l6.84-2.88-.24-.6zm-6.96 1.68c0-1.92 1.56-3 2.64-3 .84 0 1.68.48 1.92 1.08l-4.56 1.92zm-5.64 4.92h2.28v-15h-2.28v15zm-3.6-8.76c-.6-.6-1.56-1.2-2.76-1.2-2.52 0-4.92 2.28-4.92 5.16 0 2.88 2.28 5.04 4.92 5.04 1.2 0 2.16-.6 2.64-1.2h.12v.72c0 1.92-1.08 3-2.76 3-1.32 0-2.28-.96-2.52-1.8l-1.92.84c.6 1.32 2.04 3 4.56 3 2.64 0 4.8-1.56 4.8-5.28v-9.12h-2.16v.84zm-2.64 7.08c-1.56 0-2.88-1.32-2.88-3.12s1.32-3.12 2.88-3.12c1.56 0 2.76 1.32 2.76 3.12s-1.2 3.12-2.76 3.12zm29.28-13.32h-5.4v15h2.28v-5.64h3.12c2.52 0 4.92-1.8 4.92-4.68s-2.4-4.68-4.92-4.68zm.12 7.2h-3.24v-5.16h3.24c1.68 0 2.64 1.44 2.64 2.52-.12 1.32-1.08 2.64-2.64 2.64zm13.8-2.16c-1.68 0-3.36.72-3.96 2.28l2.04.84c.48-.84 1.2-1.08 2.04-1.08 1.2 0 2.28.72 2.4 1.92v.12c-.36-.24-1.32-.6-2.28-.6-2.16 0-4.32 1.2-4.32 3.36 0 2.04 1.8 3.36 3.72 3.36 1.56 0 2.28-.72 2.88-1.44h.12v1.2h2.16v-5.76c-.24-2.64-2.28-4.2-4.8-4.2zm-.24 8.28c-.72 0-1.8-.36-1.8-1.32 0-1.2 1.32-1.56 2.4-1.56.96 0 1.44.24 2.04.48-.24 1.44-1.44 2.4-2.64 2.4zm12.6-7.92l-2.52 6.48h-.12l-2.64-6.48h-2.4l3.96 9.12-2.28 5.04h2.28l6.12-14.16h-2.4zm-20.16 9.6h2.28v-15h-2.28v15z" fill="#1C1C1C"/><path d="M13.743 10.58c-.36.36-.6.96-.6 1.68v26.52c0 .72.24 1.32.6 1.68l.12.12 14.88-14.88v-.24l-15-14.88z" fill="url(#a)"/><path d="M33.663 30.74l-4.92-4.92v-.36l4.92-4.92.12.12 5.88 3.36c1.68.96 1.68 2.52 0 3.48l-6 3.24z" fill="url(#b)"/><path d="M33.783 30.62l-5.04-5.04-15 15c.6.6 1.44.6 2.52.12l17.52-10.08z" fill="url(#c)"/><path d="M33.783 20.54l-17.52-9.96c-1.08-.6-1.92-.48-2.52.12l15 14.88 5.04-5.04z" fill="url(#d)"/><path opacity=".2" d="M33.663 30.5l-17.4 9.84c-.96.6-1.8.48-2.4 0l-.12.12.12.12c.6.48 1.44.6 2.4 0l17.4-10.08z" fill="#000"/><path opacity=".12" d="M13.743 40.34c-.36-.36-.48-.96-.48-1.68v.12c0 .72.24 1.32.6 1.68v-.12h-.12zm25.92-13.2l-6 3.36.12.12 5.88-3.36c.84-.48 1.2-1.08 1.2-1.68 0 .6-.48 1.08-1.2 1.56z" fill="#000"/><path opacity=".25" d="M16.262 10.7l23.4 13.32c.72.48 1.2.96 1.2 1.56 0-.6-.36-1.2-1.2-1.68l-23.4-13.32c-1.68-.96-3-.12-3 1.8v.12c0-1.92 1.32-2.76 3-1.8z" fill="#fff"/><linearGradient id="a" x1="27.422" y1="12.032" x2="7.283" y2="32.171" gradientUnits="userSpaceOnUse"><stop stop-color="#00A0FF"/><stop offset=".007" stop-color="#00A1FF"/><stop offset=".26" stop-color="#00BEFF"/><stop offset=".512" stop-color="#00D2FF"/><stop offset=".76" stop-color="#00DFFF"/><stop offset="1" stop-color="#00E3FF"/></linearGradient><linearGradient id="b" x1="41.864" y1="25.582" x2="12.828" y2="25.582" gradientUnits="userSpaceOnUse"><stop stop-color="#FFE000"/><stop offset=".409" stop-color="#FFBD00"/><stop offset=".775" stop-color="orange"/><stop offset="1" stop-color="#FF9C00"/></linearGradient><linearGradient id="c" x1="31.055" y1="28.336" x2="3.745" y2="55.646" gradientUnits="userSpaceOnUse"><stop stop-color="#FF3A44"/><stop offset="1" stop-color="#C31162"/></linearGradient><linearGradient id="d" x1="10.019" y1="1.792" x2="22.215" y2="13.987" gradientUnits="userSpaceOnUse"><stop stop-color="#32A071"/><stop offset=".069" stop-color="#2DA771"/><stop offset=".476" stop-color="#15CF74"/><stop offset=".801" stop-color="#06E775"/><stop offset="1" stop-color="#00F076"/></linearGradient><defs><linearGradient id="paint0_linear" x1="27.422" y1="12.032" x2="7.283" y2="32.171" gradientUnits="userSpaceOnUse"><stop stop-color="#00A0FF"/><stop offset=".007" stop-color="#00A1FF"/><stop offset=".26" stop-color="#00BEFF"/><stop offset=".512" stop-color="#00D2FF"/><stop offset=".76" stop-color="#00DFFF"/><stop offset="1" stop-color="#00E3FF"/></linearGradient><linearGradient id="paint1_linear" x1="41.864" y1="25.582" x2="12.828" y2="25.582" gradientUnits="userSpaceOnUse"><stop stop-color="#FFE000"/><stop offset=".409" stop-color="#FFBD00"/><stop offset=".775" stop-color="orange"/><stop offset="1" stop-color="#FF9C00"/></linearGradient><linearGradient id="paint2_linear" x1="31.055" y1="28.336" x2="3.745" y2="55.646" gradientUnits="userSpaceOnUse"><stop stop-color="#FF3A44"/><stop offset="1" stop-color="#C31162"/></linearGradient><linearGradient id="paint3_linear" x1="10.019" y1="1.792" x2="22.215" y2="13.987" gradientUnits="userSpaceOnUse"><stop stop-color="#32A071"/><stop offset=".069" stop-color="#2DA771"/><stop offset=".476" stop-color="#15CF74"/><stop offset=".801" stop-color="#06E775"/><stop offset="1" stop-color="#00F076"/></linearGradient></defs></svg>