<svg width="118" height="55" viewBox="0 0 118 55" fill="none" xmlns="http://www.w3.org/2000/svg"><g clip-path="url(#clip0)" fill="#1C1C1C"><path fill-rule="evenodd" clip-rule="evenodd" d="M115.178 30.94c-1.434 0-2.59 1.18-2.59 2.616a2.59 2.59 0 002.59 2.598 2.596 2.596 0 002.585-2.598c0-1.436-1.167-2.616-2.585-2.616zm0 4.601a1.977 1.977 0 01-1.972-1.985c0-1.094.879-1.986 1.972-1.986 1.081 0 1.965.892 1.965 1.986a1.979 1.979 0 01-1.965 1.985z"/><path fill-rule="evenodd" clip-rule="evenodd" d="M116.146 33.14v-.215c0-.375-.218-.752-.872-.752h-.724a.31.31 0 00-.309.309v2.148a.31.31 0 00.309.313c.169 0 .316-.14.316-.313v-.739h.257l.393.843c.059.145.154.209.289.209a.31.31 0 00.305-.313.238.238 0 00-.032-.139l-.345-.696c.276-.12.413-.347.413-.654zm-.617-.033c0 .13-.081.246-.32.246h-.343v-.62h.386c.204 0 .277.116.277.245v.129z"/><path d="M108.662 31.99c-.699-.738-1.585-.523-2.486.11-.627.438-1.673.48-1.093-1.995.552-2.35 2.565-6.185 2.85-6.872.401-.958-.116-2.14-1.827-2.282-.74-.056-1.465.111-2.186.708-.79-.903-2.006-1.738-3.955-1.738-3.165 0-7.525 2.434-10.082 6.355-1.406 2.12-3.338 4.428-5.507 5.866-.666.45-1.44.687-1.919.515-.986-.363-.707-1.823 1.417-4.26 3.406-3.912 4.375-6.853 2.396-8.594-1.346-1.183-3.56-1.317-5.81-.25-2.386 1.127-3.739 2.362-4.98 3.64 3.122-6.512 7.02-14.122 9.616-18.4C86.29 2.799 86.29 1.09 84.599.79c-1.489-.262-3.003.46-4.214 3.017-2.785 5.878-5.074 11.09-7.799 16.95v-.01c-1.764 3.57-5.012 8.566-9.268 11.396-.667.45-1.44.688-1.919.516-.997-.364-.704-1.823 1.412-4.26 3.4-3.912 4.378-6.853 2.4-8.595-1.352-1.182-3.57-1.316-5.82-.249-2.954 1.398-4.32 2.952-5.864 4.553 1.299-1.99 1.151-3.823-.092-4.224-1.628-.527-2.476.118-4.03 4.543-.789 2.168-2.933 6.279-5.977 7.674-.704.322-1.992.481-1.408-1.994.555-2.35 2.559-6.185 2.845-6.872.402-.958-.112-2.14-1.816-2.282-.753-.056-1.471.111-2.184.708-.793-.903-2.02-1.738-3.969-1.738-4.126 0-10.301 4.145-11.83 10.33-.723 1.053-2.1 2.17-3.86 2.225-3.151.082-4.878-2.726-5.62-5.991C22.677 25.08 29.351 21.1 30.644 14.83c1.227-5.937-2.818-11.08-10.082-10.923-9.991.208-16.735 7.47-18.349 10.55-1.13 2.151-.09 3.883 1.338 3.81 1.028-.042 2.948-.72 3.558-2.834.963-3.354 4.756-7.22 11.188-7.76 4.866-.414 7.631 2.697 7.18 6.722-.554 4.917-5.336 7.734-10.273 9l-.012-.31c-.01-1.514-.137-2.544-1.153-2.878.009-.535-.22-.952-.748-1.2-.831-.374-1.967-.331-2.909 1.111-3.44 5.337-5.111 7.818-8.451 12.227C.402 34.382.356 36.5 1.893 36.938c1.576.452 3.052-.202 4.325-2.252 1.683-2.717 3.093-5.374 4.33-7.642.335-.006.681-.026 1.017-.046.218 4.457 2.455 10.595 8.532 9.598 2.232-.366 3.776-1.554 4.968-2.684.873 2.5 3.813 3.09 6.748 1.693 2.957-1.4 4.317-2.947 5.86-4.556-1.783 4.583 1.636 7.95 6.996 3.593.228-.192.445-.376.658-.546-2.683 5.644-5.924 11.93-7.936 16.233-1.37 2.928-.735 4.258.974 4.398 1.706.128 2.709-.762 3.738-3.24 1.384-3.336 4.082-10.59 8.328-18.913 4.051-7.953 9.262-9.908 10.283-9.23 1.093.71-.437 2.478-2.751 5.44-2.532 3.229-2.417 5.902-1.194 7.007 1.54 1.406 4.308 1.652 7.744-1.148A25.68 25.68 0 0066.95 32.4c-1.078 2.167-1.504 3.775-.045 4.365.973.388 2.27.107 2.926-1.363.957-2.155 3.142-5.908 5.54-8.528 3.045-3.33 5.787-3.942 6.418-3.532 1.084.712-.446 2.479-2.767 5.442-2.526 3.228-2.408 5.901-1.192 7.006 1.545 1.406 4.308 1.652 7.748-1.148a25.965 25.965 0 002.304-2.104c.172 3.637 3.578 4.688 6.997 3.066 2.951-1.4 4.322-2.946 5.87-4.556-1.585 4.816 2.819 7.683 7.155 3.713 1.101-1.01 1.261-2.255.759-2.772zm-75.86-.544c-1.759 1.104-4.064.674-3.01-2.544.993-3.012 3.601-4.757 5.203-4.757 1.694 0 2.515 1.057 2.996 1.947-1.102 1.768-2.686 3.776-5.188 5.354zm63.063 0c-1.758 1.104-4.06.674-3.01-2.544 1-3.012 3.478-4.757 5.082-4.757 1.7 0 2.62 1.065 3.117 1.954-1.099 1.76-2.687 3.77-5.19 5.347z"/></g><defs><clipPath id="clip0"><path fill="#fff" transform="translate(.763 .737)" d="M0 0h117v54H0z"/></clipPath></defs></svg>