<svg width="123" height="28" viewBox="0 0 123 28" fill="none" xmlns="http://www.w3.org/2000/svg"><g clip-path="url(#clip0)" fill="#000"><path d="M100.189 21.736c-1.475 1.313-2.887 2.564-4.363 3.876a498.884 498.884 0 00-4.394-3.876c-.063.03-.095.061-.157.092.44 1.617.879 3.204 1.35 4.883-.283.03-.471.03-.66.03h-4.551c-3.14 0-6.31.061-9.449.306-4.363.366-8.632-.214-12.619-2.137-.062-.03-.125-.03-.22-.06-.282.304-.627.548-.847.884-.565.885-1.35 1.038-2.385 1.007-19.682-.03-39.332-.03-59.014-.03H1.53c3.485-3.968 6.875-7.813 10.328-11.72-.252-.335-.534-.67-.785-1.037-2.103-2.96-2.103-7.019.063-9.644 1.38-1.678 3.327-2.471 5.43-2.838 1.57-.274 3.17-.427 4.74-.427 15.193-.03 30.354 0 45.547 0h.942c-.816.732-1.507 1.343-2.166 1.953.031.03.031.061.063.092.22-.061.408-.122.628-.214 3.013-1.22 6.152-1.8 9.354-1.8 8.695-.061 17.39-.03 26.116-.03.471 0 .66.213.848.548 2.009 3.418 3.986 6.836 6.027 10.255 2.228 3.753 5.273 6.897 8.35 9.979 1.475 1.495 3.044 2.869 4.583 4.303.156.152.313.305.565.58H104.27c-.439 0-.722-.122-.973-.488-1.004-1.465-2.04-2.93-3.108-4.487zM63.934 2.54c-.314-.03-.471-.03-.597-.03-14.094 0-28.22-.03-42.314 0-2.008 0-4.017.183-5.932.915-2.794 1.038-4.207 3.052-4.112 5.952.063 2.014.91 3.692 2.385 5.066.189.152.408.274.628.396-3.139 3.57-6.152 6.989-9.229 10.498.314.031.503.031.66.031 18.865 0 37.762.03 56.628 0 .313 0 .721-.183.941-.427.628-.61 1.193-1.252 1.79-1.923 3.955 2.258 8.224 2.838 12.65 2.655 2.856-.122 5.744-.244 8.6-.335 1.319-.031 2.606 0 3.924 0 .22 0 .44-.031.754-.031-.251-.946-.408-1.862-.754-2.686-.596-1.373.22-2.227 1.036-3.173a662.033 662.033 0 014.803 4.272c1.538-1.373 3.076-2.716 4.614-4.12.189.275.345.488.502.702 1.036 1.495 2.072 2.96 3.077 4.486.251.397.533.55 1.036.55 4.269-.031 8.506 0 12.775 0 .157 0 .346-.031.503-.062-.063.03-.095.061-.157.092-.817-.885-1.633-1.8-2.48-2.686-2.888-3.02-5.87-6.012-8.036-9.613a515.43 515.43 0 01-5.839-9.888c-.282-.518-.627-.671-1.192-.671-2.323.03-4.678 0-7.032 0-6.34.03-12.681-.03-19.022.122-3.704.092-7.251.946-10.359 3.021-3.359 2.228-5.022 5.31-4.677 9.308.094 1.038.44 2.014.69 3.174l-2.166.092c-.062-.122-.094-.183-.094-.214 0-3.265 0-6.561.032-9.827 0-.274.22-.61.44-.793.91-.855 1.851-1.648 2.793-2.472.91-.794 1.79-1.557 2.73-2.38z"/><path d="M114.315 23.628h-8.35c-.471 0-.753-.152-1.036-.518-1.193-1.801-2.448-3.54-3.672-5.341a25.856 25.856 0 01-.503-.702c-1.663 1.465-3.264 2.9-4.928 4.364a625.236 625.236 0 01-5.054-4.517c-1.036 1.343-2.197 2.503-2.7 4.12-.125.367.032.794.126 1.19.094.428.22.855.314 1.343-.22.03-.345.061-.47.061-3.673-.03-7.346.061-10.987.336-3.359.244-6.686-.213-9.794-1.617-.534-.245-1.067-.55-1.632-.824.722-1.374 1.412-2.686 2.072-3.968-.032-.03-.063-.06-.095-.06-.722.793-1.444 1.556-2.166 2.35-1.067 1.159-2.103 2.319-3.17 3.448-.188.183-.502.366-.753.366-9.543.03-19.086.03-28.628.03-.094 0-.189-.03-.471-.03.534-.458.879-.885 1.35-1.19 1.6-1.007 2.009-2.442 1.946-4.212-.126-3.204-.063-6.409-.032-9.613 0-1.13-.282-2.014-1.255-2.716-.69-.458-1.256-1.068-1.978-1.71h13.498c-.847.733-1.57 1.435-2.323 2.076-.565.458-.847 1.007-.847 1.71-.032 2.288-.032 4.577-.032 6.896 0 1.648.032 3.327.063 4.975 0 .732.283 1.312.879 1.77.628.488 1.224 1.037 1.883 1.617.942-.702 1.978-1.282 2.763-2.106.816-.824.879-1.983.91-3.082.094-2.625.126-5.219.126-7.843 0-3.876.22-2.93-2.355-5.219-.25-.244-.502-.457-.847-.793h13.466c-.847.732-1.57 1.434-2.354 2.045-.534.457-.848.976-.848 1.648V19.63c0 .03.032.091.095.183 2.071-.122 4.331.518 6.12-1.343a2.76 2.76 0 00-.22-.427c-2.102-3.632-1.255-7.935 2.104-10.56 2.574-2.014 5.619-2.868 8.82-3.174 2.167-.183 4.333-.183 6.53-.213 2.982-.03 5.995 0 8.977 0 .189 0 .409.03.754.03-.69.702-1.287 1.282-1.884 1.892-1.067 1.069-2.134 2.106-3.139 3.205-.313.305-.533.366-.941.183-1.915-.885-3.956-1.556-6.09-1.77-1.946-.183-3.798.122-5.525.946-3.83 1.862-4.175 6.561-.69 8.972 1.507 1.038 3.264 1.526 5.085 1.587 1.977.03 3.955-.122 5.933-.244.25-.03.565-.213.784-.397 3.39-3.387 6.31-7.11 8.978-11.078.314-.457.502-1.007.66-1.556.125-.55.125-1.13.156-1.77h.754c2.071 0 4.112.03 6.183 0 .534 0 .785.183 1.036.61 1.444 2.503 2.982 5.005 4.395 7.538 2.166 4.06 5.305 7.416 8.444 10.773.125.153.282.305.565.61zM96.14 9.743c-.973 1.373-1.915 2.685-2.825 3.967.91.824 1.758 1.617 2.637 2.41.69-.701 1.444-1.433 2.166-2.196.125-.122.22-.397.157-.52-.691-1.19-1.382-2.38-2.135-3.661z"/><path d="M8.436 23.598c2.072-2.38 4.08-4.67 6.09-6.958.094.03.157 0 .157.03 1.946 2.716 5.87 3.998 9.134 2.9.502-.153.88-.641 1.319-1.008-.346-.366-.66-.885-1.1-1.068a114.178 114.178 0 00-5.68-2.166c-1.57-.58-3.046-1.282-4.207-2.503-1.256-1.404-1.758-3.052-1.318-4.944.25-1.16.941-2.014 2.009-2.594 1.318-.702 2.762-1.037 4.237-1.068 4.27-.092 8.57-.061 12.839-.092.063 0 .125.061.188.061L27.46 8.614c-1.947-1.038-4.144-1.435-6.467-.855a4.808 4.808 0 00-1.099.427c-.47.244-.533.641-.125 1.007.47.367.942.763 1.507 1.008 2.04.854 4.112 1.617 6.152 2.471 1.319.58 2.637 1.19 3.798 2.015 1.57 1.129 2.574 2.716 2.166 4.73-.377 2.045-1.883 3.174-3.798 3.723a11.687 11.687 0 01-3.233.488c-5.807.061-11.614.031-17.39.031-.157 0-.283-.03-.534-.061zM91.087 5.257c-.126.396-.189.824-.409 1.16a72.076 72.076 0 01-8.444 10.528c-.25.244-.659.427-1.004.488-2.197.305-4.426.428-6.623-.122-.88-.244-1.79-.58-2.543-1.068-2.386-1.648-2.103-4.852.534-6.134 1.758-.855 3.641-.946 5.556-.64a17.79 17.79 0 015.587 1.922c.534.274.785.183 1.162-.214 1.789-1.861 3.61-3.662 5.43-5.493a3.93 3.93 0 01.534-.488c.094 0 .157.03.22.06zm-7.314 7.812c-2.04-1.16-4.081-1.892-6.278-2.197-1.444-.214-2.857-.061-4.175.55-1.601.762-1.79 2.593-.346 3.6.534.367 1.162.61 1.758.794 2.01.55 4.018.427 6.058.183.189-.03.377-.092.503-.214.816-.885 1.6-1.77 2.48-2.716zM45.54 20.943c-.911-.488-1.162-1.22-1.162-2.197.063-3.144.031-6.257.031-9.4 0-1.74.063-1.831 1.633-2.9.408.367.878.703 1.287 1.13.125.153.22.397.22.61 0 3.235-.032 6.5-.063 9.736-.095 1.312-.44 2.502-1.947 3.02z"/><path d="M27.678 10.902c.251-.183.534-.366.754-.61l3.986-3.784c.377.305.785.64 1.162 1.007.157.153.25.427.25.671.032 2.167 0 4.303 0 6.5-.093-.03-.188 0-.219-.03-1.475-1.74-3.39-2.808-5.556-3.54-.094-.061-.22-.152-.377-.214zm4.615.55V8.766c-.597.55-1.193 1.099-1.79 1.679.565.335 1.162.671 1.79 1.007zm-4.583-.58l-4.238-1.465c.032-.061.063-.122.094-.214a7.276 7.276 0 014.144 1.679c-.032.03 0 0 0 0zm-6.655 7.202c-1.758.092-3.296-.458-4.143-1.404l4.143 1.404z"/></g><defs><clipPath id="clip0"><path fill="#fff" transform="translate(.624 .742)" d="M0 0h122v27H0z"/></clipPath></defs></svg>