<svg xmlns="http://www.w3.org/2000/svg" xmlns:xlink="http://www.w3.org/1999/xlink"><symbol id="logo" viewBox="0 0 227 91"><path fill-rule="evenodd" clip-rule="evenodd" d="M227 .916a.919.919 0 00-.922-.916h-4.033a.93.93 0 00-.614.22 78.728 78.728 0 01-7.286 5.482 132.273 132.273 0 01-9.282 5.517c-2.497 1.331-7.046 3.102-9.009 3.841a.925.925 0 00-.468 1.345l5.776 9.732a.917.917 0 001.216.344c2.288-1.217 4.344-2.434 6.169-3.649a44.278 44.278 0 003.189-2.343.848.848 0 01.882-.107.782.782 0 01.486.716v68.42a.921.921 0 00.92.92h12.051a.92.92 0 00.919-.92L227 .916zm-.822 89.432zm.384-90.116a.835.835 0 00-.484-.151h.004c.173 0 .34.053.48.151zm-4.513-.151h-.004a.845.845 0 00-.549.203 78.617 78.617 0 01-7.298 5.487 117 117 0 01-1.043.674 140.3 140.3 0 01-8.24 4.85c-2.497 1.324-7.064 3.097-9.026 3.84 1.968-.735 6.529-2.508 9.026-3.84a134.522 134.522 0 009.287-5.524A78.617 78.617 0 00221.5.284a.845.845 0 01.549-.203zM88.896 84.963a8.683 8.683 0 00-.607-1.673 2.82 2.82 0 00-.88-1.105c-.5-.336-1.296-.639-2.244-.914-.95-.274-2.063-.52-3.208-.737-2.289-.432-4.708-.745-6.218-.92a1.615 1.615 0 01-1.433-1.6V45.706c0-8.757-1.13-16.349-4.34-21.755-3.209-5.406-8.51-8.624-16.79-8.624-7.385 0-18.193 4.033-25.938 11.442a1.855 1.855 0 01-1.957.357 1.667 1.667 0 01-1.133-1.556v-9.373c0-.793-.123-1.345-.354-1.729a1.184 1.184 0 00-.977-.576c-.463 0-.92.095-1.344.282-.538.224-1.061.48-1.567.769l-.43.232c-2.44 1.322-14.549 7.877-18.258 9.998-.59.384-.907.65-1.064 1.047a2.255 2.255 0 00-.135.704C0 27.207 0 27.554 0 27.994c0 .785.048 1.344.255 1.728.208.384.573.62 1.176.72.91.147 1.728.264 2.471.367l.227.033c.647.09 1.231.173 1.753.257 1.172.192 2.038.398 2.676.759a2.717 2.717 0 011.298 1.68c.257.817.355 1.936.355 3.51 0 5.342.023 10.848.046 16.18v.14c.043 10.126.082 19.612-.046 26.171v9.147a1.757 1.757 0 001.757 1.755h10.423a1.757 1.757 0 001.757-1.755V61.554c.069-1.406.192-3.05.384-4.813.576-5.389 1.796-11.313 4.098-15.087 2.01-3.297 3.593-5.608 5.447-7.35 1.77-1.663 3.906-2.91 7.17-3.775 2.714-.72 4.7-1.047 6.54-.999 1.797.046 3.649.457 6.041 1.487 2.055.883 3.361 1.959 4.29 3.303.713 1.033 1.293 2.353 1.746 4.112.357 2.142.53 4.311.515 6.483V88.68a1.757 1.757 0 001.757 1.756h25.685a1.667 1.667 0 001.69-1.815 23.997 23.997 0 00-.615-3.658zm-6.53-4.264l-.008-.002.01.002h-.001zm-.008-.002a11.368 11.368 0 01-.438-.082 16.48 16.48 0 00-.293-.057c.243.044.488.092.731.14zm.623.129a61.912 61.912 0 00.002 0h-.002zm-1.471-.288a102.478 102.478 0 00-5.782-.841c1.415.165 3.63.449 5.784.84h-.002zM29.542 24.844c7.475-6.124 16.96-9.429 23.622-9.429-6.672 0-16.157 3.305-23.622 9.43zm0 0a40.78 40.78 0 00-1.515 1.308 36.016 36.016 0 011.517-1.313l-.002.006zm-2.248 1.992a1.86 1.86 0 01-1.258.51 1.86 1.86 0 001.26-.516l-.002.006zm-26.048-1.59c2.673-1.527 9.707-5.358 14.342-7.874-4.634 2.516-11.669 6.348-14.342 7.874zm14.342-7.874c2.115-1.148 3.73-2.022 4.203-2.278l.141-.076-.407.22-.003.002c-.673.364-2.12 1.147-3.934 2.132zM.068 27.998c0 1.575.191 2.164 1.376 2.362-1.18-.198-1.377-.785-1.377-2.362zm10.314 43.846v.507c-.01-.17-.01-.334-.01-.507h.01zm0 1.033v.517c-.01-.171-.01-.344-.01-.517h.01zm-.01 1.296v.43a3.968 3.968 0 01-.011-.38v-.05h.011zm0 1.003v.453a3.001 3.001 0 01-.019-.418v-.035h.02zm-.011 1.185v.384a2.15 2.15 0 01-.02-.384h.02zm0-23.134v-.14l.002.57c.017 3.934.032 7.767.038 11.365a3003.84 3003.84 0 01-.056-10.659l-.005-1.136h.02zm0-.14a7976.905 7976.905 0 01-.015-4.328c.007 1.451.014 2.896.015 4.329zm.011 12.189v.75c.007-.164.005-.331.002-.498l-.002-.252zM4.108 30.754l.397.055-.364-.05-.033-.005zm4.958 1.357a.92.92 0 00-.063-.051l-.008-.006c.022.017.045.036.068.057h.003zm.494.565l.02.034.03.05c-.019-.021-.033-.045-.047-.069l-.009-.015h.006zm.355.762l.016.047.02.065a1.006 1.006 0 01-.041-.111h.005zm.094.321c0 .022.008.043.016.064l.011.034a.387.387 0 01-.032-.098h.005zm.096.427a.21.21 0 00.008.048l.006.028a.358.358 0 01-.015-.06l-.004-.018.005.002zm.06.362c0 .02.002.04.005.06v-.002a.745.745 0 01-.01-.058h.005zm.005.06a.56.56 0 01.005.036l-.005-.037zm.078.755v.078l-.002-.03-.004-.048h.006zm.013.192zm.038 1.415v.077a.524.524 0 01-.005-.077h.005zm-.024-1.152v.192c0-.058-.002-.121-.006-.186l.005-.006zm.017.507v.192l-.006-.186.006-.006zm.011 4.114v.96a75.363 75.363 0 01-.006-.955l.006-.005zm0-1.758v.941c-.007-.309-.007-.622-.007-.935l.007-.006zm.016 7.13v-1.259c-.009.364-.008.725-.008 1.084v.18l.008-.006zm0-1.748v-2.077a84.113 84.113 0 00-.014 2.082l.014-.005zm1.663 46.284a1.673 1.673 0 01-1.673-1.672v.005a1.673 1.673 0 001.673 1.673v-.006zM60.5 89.003a1.676 1.676 0 001.64 1.344 1.676 1.676 0 01-1.644-1.33l.004-.014zm120.403-45.125c.444 0 .728.11.92.292a.895.895 0 01.239.643l.466 7.264c0 .487-.474.945-1.152.945h-35.377a1.344 1.344 0 00-1.344 1.344l.322 35.127a1.006 1.006 0 01-.941.943h-7.785a1.004 1.004 0 01-.945-.943l.57-35.108a1.351 1.351 0 00-1.344-1.36l-35.106.296a.686.686 0 01-.44-.215 2.31 2.31 0 01-.32-.394 1.203 1.203 0 01-.192-.668v-7.156a.668.668 0 01.21-.436c.116-.12.245-.228.385-.32.203-.13.44-.198.682-.192l34.772.291a1.344 1.344 0 001.344-1.344l-.344-34.391a1.501 1.501 0 01.33-.96l.118-.147a1.49 1.49 0 011.165-.545h6.578c.237-.009.472.059.668.192.152.108.286.237.4.384a.967.967 0 01.211.576l-.33 34.897a1.344 1.344 0 001.344 1.344l34.896-.359zm-81.51 9.36l35.106-.293a1.422 1.422 0 010-.002l-35.105.296zm36.858 37.115h.004a.93.93 0 01-.004 0z" fill="#FAF7F4"/></symbol><symbol id="notch" viewBox="0 0 468 65"><path d="M.292 0h467.417a10.768 10.768 0 00-7.8 9.998l-.062 1.873c0 28.806-23.352 52.159-52.159 52.159H60.313c-28.807 0-52.16-23.353-52.16-52.16l-.061-1.872A10.769 10.769 0 00.292 0z" fill="#151515"/></symbol></svg>