<svg width="142" height="35" viewBox="0 0 142 35" fill="none" xmlns="http://www.w3.org/2000/svg"><g clip-path="url(#clip0)" fill="#1C1C1C"><path d="M34.731 13.448L29.457 24.59 24.13 13.5h-4.466L14.39 24.642 9.115 13.5H.773l11.032 20.557h4.898l5.22-11.298 5.22 11.246h4.898l10.978-20.557h-8.288zm13.401 10.305c0 2.615 1.775 4.603 4.843 4.603 3.067 0 4.79-1.988 4.79-4.603-.216-2.616-2.584-4.499-5.22-4.29a4.725 4.725 0 00-4.413 4.29zm16.898 10.2h-7.48v-2.25h-.108c-1.292 2.04-3.929 2.982-6.404 2.982-6.243 0-10.656-5.074-10.656-10.932 0-5.859 4.305-10.985 10.602-10.985 2.422 0 5.005.89 6.565 2.668v-1.988h7.48v20.505zM73.695.737v15.274h.107c1.507-2.145 4.09-3.4 6.781-3.243 5.382 0 7.965 3.452 7.965 8.63v12.555h-7.48V23.439c0-2.406-.377-4.865-3.39-4.865-3.014 0-3.93 2.51-3.93 4.865v10.514h-7.48V.737h7.427zM97.32 23.7c0 2.616 1.776 4.603 4.844 4.603 3.067 0 4.789-1.987 4.789-4.603-.269-2.563-2.637-4.498-5.327-4.237-2.26.21-4.037 1.988-4.306 4.237zm17.545 0c0 6.957-5.92 10.933-12.701 10.933-6.781 0-12.755-3.924-12.755-10.933s5.92-10.984 12.701-10.984c6.781 0 12.755 3.975 12.755 10.984zm8.933-.052c0 2.615 1.776 4.603 4.79 4.603 3.014 0 4.843-1.988 4.79-4.603-.269-2.563-2.691-4.446-5.328-4.185-2.261.21-4.036 1.988-4.252 4.185zm17.491 0c0 6.957-5.92 10.932-12.701 10.932-6.781 0-12.701-3.923-12.755-10.932-.053-7.01 5.92-10.985 12.701-10.985 6.781 0 12.755 3.976 12.755 10.985z"/></g><defs><clipPath id="clip0"><path fill="#fff" transform="translate(.773 .737)" d="M0 0h141v34H0z"/></clipPath></defs></svg>